# xmcd CD database file
#
# Track frame offsets:
#	200
#	16387
#	34362
#	58977
#	74300
#	89702
#	109405
#	130715
#	147387
#	160487
#	184222
#	199460
#	215487
#	234942
#	252672
#	278470
#
# Disc length: 3735 seconds
#
# Revision: 1
# Processed by: cddbd v1.5.1PL2 Copyright (c) Steve Scherf et al.
# Submitted via: CDex 1.51
#
DISCID=000e9510
DTITLE=Engelbert Wrobel - Engelbert Wrobel*s Swing Society - Live at "Sägewerk"
DYEAR=1994
DGENRE=Jazz
TTITLE0=Opus One
TTITLE1=Goody Goody
TTITLE2=Danny Boy (A Londonderry Air)
TTITLE3=Temptation Rag
TTITLE4=Keepin* out of Mischief now
TTITLE5=Sunday
TTITLE6=I may be wrong
TTITLE7=Front and Center
TTITLE8=Clouds in my Heart
TTITLE9=China Boy
TTITLE10=Love*s in my Heart
TTITLE11=Sweet Georgia Brown
TTITLE12=She*s funny that Way
TTITLE13=Four Brothers
TTITLE14=Tea for Two
TTITLE15=Applause
EXTD=YEAR: 1994
EXTT0=
EXTT1=
EXTT2=
EXTT3=
EXTT4=
EXTT5=
EXTT6=
EXTT7=
EXTT8=
EXTT9=
EXTT10=
EXTT11=
EXTT12=
EXTT13=
EXTT14=
EXTT15=
PLAYORDER=
